<svg viewBox="0 0 13 13" xmlns="http://www.w3.org/2000/svg"><path d="M10.13 7.423a.52.52 0 00.162-.381V5.958a.52.52 0 00-.161-.38.52.52 0 00-.381-.161h-6.5a.52.52 0 00-.38.16.52.52 0 00-.162.381v1.084a.52.52 0 00.161.38.52.52 0 00.381.161h6.5a.52.52 0 00.38-.16zm1.998-4.186C12.71 4.233 13 5.321 13 6.5c0 1.18-.29 2.267-.872 3.263a6.47 6.47 0 01-2.365 2.365A6.358 6.358 0 016.5 13c-1.18 0-2.267-.29-3.263-.872A6.47 6.47 0 01.872 9.763 6.358 6.358 0 010 6.5c0-1.18.29-2.267.872-3.263A6.47 6.47 0 013.237.872 6.358 6.358 0 016.5 0c1.18 0 2.267.29 3.263.872a6.47 6.47 0 012.365 2.365z" fill="#000000"/></svg>